<svg width="43" height="69" viewBox="0 0 43 69" fill="none" xmlns="http://www.w3.org/2000/svg">
<rect x="1.26611" y="6.06799" width="16.8503" height="33.4759" transform="rotate(-16.1046 1.26611 6.06799)" fill="#FF1FFE"/>
<rect x="2.14502" y="4.64496" width="0.558165" height="0.558165" transform="rotate(-16.1046 2.14502 4.64496)" fill="black"/>
<rect x="2.68164" y="4.49011" width="0.558165" height="0.558165" transform="rotate(-16.1046 2.68164 4.49011)" fill="black"/>
<rect x="3.21777" y="4.33533" width="0.558165" height="0.558165" transform="rotate(-16.1046 3.21777 4.33533)" fill="black"/>
<rect x="3.75391" y="4.18042" width="0.558165" height="0.558165" transform="rotate(-16.1046 3.75391 4.18042)" fill="black"/>
<rect x="4.29004" y="4.02563" width="0.558165" height="0.558165" transform="rotate(-16.1046 4.29004 4.02563)" fill="black"/>
<rect x="4.82666" y="3.87079" width="0.558165" height="0.558165" transform="rotate(-16.1046 4.82666 3.87079)" fill="black"/>
<rect x="5.36279" y="3.716" width="0.558165" height="0.558165" transform="rotate(-16.1046 5.36279 3.716)" fill="black"/>
<rect x="5.89893" y="3.56116" width="0.558165" height="0.558165" transform="rotate(-16.1046 5.89893 3.56116)" fill="black"/>
<rect x="6.43506" y="3.40631" width="0.558165" height="0.558165" transform="rotate(-16.1046 6.43506 3.40631)" fill="black"/>
<rect x="6.97168" y="3.25146" width="0.558165" height="0.558165" transform="rotate(-16.1046 6.97168 3.25146)" fill="black"/>
<rect x="7.50781" y="3.09668" width="0.558165" height="0.558165" transform="rotate(-16.1046 7.50781 3.09668)" fill="black"/>
<rect x="8.04395" y="2.94183" width="0.558165" height="0.558165" transform="rotate(-16.1046 8.04395 2.94183)" fill="black"/>
<rect x="8.58008" y="2.78699" width="0.558165" height="0.558165" transform="rotate(-16.1046 8.58008 2.78699)" fill="black"/>
<rect x="9.1167" y="2.63214" width="0.558165" height="0.558165" transform="rotate(-16.1046 9.1167 2.63214)" fill="black"/>
<rect x="9.65283" y="2.47736" width="0.558165" height="0.558165" transform="rotate(-16.1046 9.65283 2.47736)" fill="black"/>
<rect x="10.189" y="2.32251" width="0.558165" height="0.558165" transform="rotate(-16.1046 10.189 2.32251)" fill="black"/>
<rect x="10.7251" y="2.16766" width="0.558165" height="0.558165" transform="rotate(-16.1046 10.7251 2.16766)" fill="black"/>
<rect x="11.2617" y="2.01288" width="0.558165" height="0.558165" transform="rotate(-16.1046 11.2617 2.01288)" fill="black"/>
<rect x="11.7979" y="1.85803" width="0.558165" height="0.558165" transform="rotate(-16.1046 11.7979 1.85803)" fill="black"/>
<rect x="12.334" y="1.70319" width="0.558165" height="0.558165" transform="rotate(-16.1046 12.334 1.70319)" fill="black"/>
<rect x="12.8706" y="1.54834" width="0.558165" height="0.558165" transform="rotate(-16.1046 12.8706 1.54834)" fill="black"/>
<rect x="13.4067" y="1.39349" width="0.558165" height="0.558165" transform="rotate(-16.1046 13.4067 1.39349)" fill="black"/>
<rect x="13.9429" y="1.23871" width="0.558165" height="0.558165" transform="rotate(-16.1046 13.9429 1.23871)" fill="black"/>
<rect x="14.479" y="1.08386" width="0.558165" height="0.558165" transform="rotate(-16.1046 14.479 1.08386)" fill="black"/>
<rect x="15.0151" y="0.929016" width="0.558165" height="0.558165" transform="rotate(-16.1046 15.0151 0.929016)" fill="black"/>
<rect x="15.5518" y="0.774231" width="0.558165" height="0.558165" transform="rotate(-16.1046 15.5518 0.774231)" fill="black"/>
<rect x="16.0879" y="0.619385" width="0.558165" height="0.558165" transform="rotate(-16.1046 16.0879 0.619385)" fill="black"/>
<rect x="1.22754" y="5.49084" width="0.558165" height="0.558165" transform="rotate(-16.1046 1.22754 5.49084)" fill="black"/>
<rect x="1.76367" y="5.33606" width="0.558165" height="0.558165" transform="rotate(-16.1046 1.76367 5.33606)" fill="black"/>
<rect x="2.2998" y="5.18121" width="0.558165" height="0.558165" transform="rotate(-16.1046 2.2998 5.18121)" fill="black"/>
<rect x="2.83643" y="5.02637" width="0.558165" height="0.558165" transform="rotate(-16.1046 2.83643 5.02637)" fill="black"/>
<rect x="3.37256" y="4.87152" width="0.558165" height="0.558165" transform="rotate(-16.1046 3.37256 4.87152)" fill="black"/>
<rect x="3.90869" y="4.71667" width="0.558165" height="0.558165" transform="rotate(-16.1046 3.90869 4.71667)" fill="black"/>
<rect x="4.44531" y="4.56189" width="0.558165" height="0.558165" transform="rotate(-16.1046 4.44531 4.56189)" fill="black"/>
<rect x="4.98145" y="4.40704" width="0.558165" height="0.558165" transform="rotate(-16.1046 4.98145 4.40704)" fill="black"/>
<rect x="5.51758" y="4.2522" width="0.558165" height="0.558165" transform="rotate(-16.1046 5.51758 4.2522)" fill="black"/>
<rect x="6.05371" y="4.09741" width="0.558165" height="0.558165" transform="rotate(-16.1046 6.05371 4.09741)" fill="black"/>
<rect x="6.58984" y="3.94257" width="0.558165" height="0.558165" transform="rotate(-16.1046 6.58984 3.94257)" fill="black"/>
<rect x="7.12646" y="3.78772" width="0.558165" height="0.558165" transform="rotate(-16.1046 7.12646 3.78772)" fill="black"/>
<rect x="7.6626" y="3.63287" width="0.558165" height="0.558165" transform="rotate(-16.1046 7.6626 3.63287)" fill="black"/>
<rect x="8.19873" y="3.47809" width="0.558165" height="0.558165" transform="rotate(-16.1046 8.19873 3.47809)" fill="black"/>
<rect x="8.73486" y="3.32324" width="0.558165" height="0.558165" transform="rotate(-16.1046 8.73486 3.32324)" fill="black"/>
<rect x="9.27148" y="3.1684" width="0.558165" height="0.558165" transform="rotate(-16.1046 9.27148 3.1684)" fill="black"/>
<rect x="9.80762" y="3.01355" width="0.558165" height="0.558165" transform="rotate(-16.1046 9.80762 3.01355)" fill="black"/>
<rect x="10.3438" y="2.85876" width="0.558165" height="0.558165" transform="rotate(-16.1046 10.3438 2.85876)" fill="black"/>
<rect x="10.8799" y="2.70392" width="0.558165" height="0.558165" transform="rotate(-16.1046 10.8799 2.70392)" fill="black"/>
<rect x="11.4165" y="2.54913" width="0.558165" height="0.558165" transform="rotate(-16.1046 11.4165 2.54913)" fill="black"/>
<rect x="11.9526" y="2.39423" width="0.558165" height="0.558165" transform="rotate(-16.1046 11.9526 2.39423)" fill="black"/>
<rect x="12.4888" y="2.23944" width="0.558165" height="0.558165" transform="rotate(-16.1046 12.4888 2.23944)" fill="black"/>
<rect x="13.0254" y="2.08459" width="0.558165" height="0.558165" transform="rotate(-16.1046 13.0254 2.08459)" fill="black"/>
<rect x="13.5615" y="1.92975" width="0.558165" height="0.558165" transform="rotate(-16.1046 13.5615 1.92975)" fill="black"/>
<rect x="14.0977" y="1.77496" width="0.558165" height="0.558165" transform="rotate(-16.1046 14.0977 1.77496)" fill="black"/>
<rect x="14.6338" y="1.62012" width="0.558165" height="0.558165" transform="rotate(-16.1046 14.6338 1.62012)" fill="black"/>
<rect x="15.1704" y="1.46527" width="0.558165" height="0.558165" transform="rotate(-16.1046 15.1704 1.46527)" fill="black"/>
<rect x="15.7065" y="1.31049" width="0.558165" height="0.558165" transform="rotate(-16.1046 15.7065 1.31049)" fill="black"/>
<rect x="16.2427" y="1.15558" width="0.558165" height="0.558165" transform="rotate(-16.1046 16.2427 1.15558)" fill="black"/>
<rect x="16.7788" y="1.00079" width="0.558165" height="0.558165" transform="rotate(-16.1046 16.7788 1.00079)" fill="black"/>
<rect x="0.845703" y="6.18195" width="0.558165" height="0.558165" transform="rotate(-16.1046 0.845703 6.18195)" fill="black"/>
<rect x="1.38232" y="6.02716" width="0.558165" height="0.558165" transform="rotate(-16.1046 1.38232 6.02716)" fill="black"/>
<rect x="5.13623" y="4.94336" width="0.558165" height="0.558165" transform="rotate(-16.1046 5.13623 4.94336)" fill="black"/>
<rect x="5.67236" y="4.78851" width="0.558165" height="0.558165" transform="rotate(-16.1046 5.67236 4.78851)" fill="black"/>
<rect x="6.2085" y="4.63367" width="0.558165" height="0.558165" transform="rotate(-16.1046 6.2085 4.63367)" fill="black"/>
<rect x="6.74512" y="4.47882" width="0.558165" height="0.558165" transform="rotate(-16.1046 6.74512 4.47882)" fill="black"/>
<rect x="7.28125" y="4.32397" width="0.558165" height="0.558165" transform="rotate(-16.1046 7.28125 4.32397)" fill="black"/>
<rect x="7.81738" y="4.16919" width="0.558165" height="0.558165" transform="rotate(-16.1046 7.81738 4.16919)" fill="black"/>
<rect x="8.35352" y="4.01434" width="0.558165" height="0.558165" transform="rotate(-16.1046 8.35352 4.01434)" fill="black"/>
<rect x="8.89014" y="3.8595" width="0.558165" height="0.558165" transform="rotate(-16.1046 8.89014 3.8595)" fill="black"/>
<rect x="9.42627" y="3.70471" width="0.558165" height="0.558165" transform="rotate(-16.1046 9.42627 3.70471)" fill="black"/>
<rect x="9.9624" y="3.54987" width="0.558165" height="0.558165" transform="rotate(-16.1046 9.9624 3.54987)" fill="black"/>
<rect x="10.499" y="3.39502" width="0.558165" height="0.558165" transform="rotate(-16.1046 10.499 3.39502)" fill="black"/>
<rect x="11.0352" y="3.24017" width="0.558165" height="0.558165" transform="rotate(-16.1046 11.0352 3.24017)" fill="black"/>
<rect x="11.5713" y="3.08539" width="0.558165" height="0.558165" transform="rotate(-16.1046 11.5713 3.08539)" fill="black"/>
<rect x="12.1074" y="2.93048" width="0.558165" height="0.558165" transform="rotate(-16.1046 12.1074 2.93048)" fill="black"/>
<rect x="12.644" y="2.7757" width="0.558165" height="0.558165" transform="rotate(-16.1046 12.644 2.7757)" fill="black"/>
<rect x="13.1802" y="2.62085" width="0.558165" height="0.558165" transform="rotate(-16.1046 13.1802 2.62085)" fill="black"/>
<rect x="13.7163" y="2.466" width="0.558165" height="0.558165" transform="rotate(-16.1046 13.7163 2.466)" fill="black"/>
<rect x="16.9336" y="1.53705" width="0.558165" height="0.558165" transform="rotate(-16.1046 16.9336 1.53705)" fill="black"/>
<rect x="17.4702" y="1.3822" width="0.558165" height="0.558165" transform="rotate(-16.1046 17.4702 1.3822)" fill="black"/>
<rect x="1.00098" y="6.7182" width="0.558165" height="0.558165" transform="rotate(-16.1046 1.00098 6.7182)" fill="black"/>
<rect x="5.29102" y="5.47961" width="0.558165" height="0.558165" transform="rotate(-16.1046 5.29102 5.47961)" fill="black"/>
<rect x="5.82715" y="5.32477" width="0.558165" height="0.558165" transform="rotate(-16.1046 5.82715 5.32477)" fill="black"/>
<rect x="6.36328" y="5.16992" width="0.558165" height="0.558165" transform="rotate(-16.1046 6.36328 5.16992)" fill="black"/>
<rect x="6.8999" y="5.01508" width="0.558165" height="0.558165" transform="rotate(-16.1046 6.8999 5.01508)" fill="black"/>
<rect x="7.43604" y="4.86029" width="0.558165" height="0.558165" transform="rotate(-16.1046 7.43604 4.86029)" fill="black"/>
<rect x="7.97217" y="4.70544" width="0.558165" height="0.558165" transform="rotate(-16.1046 7.97217 4.70544)" fill="black"/>
<rect x="8.5083" y="4.5506" width="0.558165" height="0.558165" transform="rotate(-16.1046 8.5083 4.5506)" fill="black"/>
<rect x="9.04492" y="4.39575" width="0.558165" height="0.558165" transform="rotate(-16.1046 9.04492 4.39575)" fill="black"/>
<rect x="9.58105" y="4.24091" width="0.558165" height="0.558165" transform="rotate(-16.1046 9.58105 4.24091)" fill="black"/>
<rect x="10.1172" y="4.08612" width="0.558165" height="0.558165" transform="rotate(-16.1046 10.1172 4.08612)" fill="black"/>
<rect x="10.6533" y="3.93127" width="0.558165" height="0.558165" transform="rotate(-16.1046 10.6533 3.93127)" fill="black"/>
<rect x="11.1899" y="3.77643" width="0.558165" height="0.558165" transform="rotate(-16.1046 11.1899 3.77643)" fill="black"/>
<rect x="11.7261" y="3.62158" width="0.558165" height="0.558165" transform="rotate(-16.1046 11.7261 3.62158)" fill="black"/>
<rect x="12.2622" y="3.4668" width="0.558165" height="0.558165" transform="rotate(-16.1046 12.2622 3.4668)" fill="black"/>
<rect x="12.7988" y="3.31195" width="0.558165" height="0.558165" transform="rotate(-16.1046 12.7988 3.31195)" fill="black"/>
<rect x="13.335" y="3.1571" width="0.558165" height="0.558165" transform="rotate(-16.1046 13.335 3.1571)" fill="black"/>
<rect x="17.625" y="1.91852" width="0.558165" height="0.558165" transform="rotate(-16.1046 17.625 1.91852)" fill="black"/>
<rect x="18.1611" y="1.76367" width="0.558165" height="0.558165" transform="rotate(-16.1046 18.1611 1.76367)" fill="black"/>
<rect x="0.619629" y="7.4093" width="0.558165" height="0.558165" transform="rotate(-16.1046 0.619629 7.4093)" fill="black"/>
<rect x="1.15576" y="7.25446" width="0.558165" height="0.558165" transform="rotate(-16.1046 1.15576 7.25446)" fill="black"/>
<rect x="5.98193" y="5.86102" width="0.558165" height="0.558165" transform="rotate(-16.1046 5.98193 5.86102)" fill="black"/>
<rect x="6.51807" y="5.70618" width="0.558165" height="0.558165" transform="rotate(-16.1046 6.51807 5.70618)" fill="black"/>
<rect x="7.05469" y="5.55133" width="0.558165" height="0.558165" transform="rotate(-16.1046 7.05469 5.55133)" fill="black"/>
<rect x="7.59082" y="5.39655" width="0.558165" height="0.558165" transform="rotate(-16.1046 7.59082 5.39655)" fill="black"/>
<rect x="8.12695" y="5.2417" width="0.558165" height="0.558165" transform="rotate(-16.1046 8.12695 5.2417)" fill="black"/>
<rect x="8.66309" y="5.08685" width="0.558165" height="0.558165" transform="rotate(-16.1046 8.66309 5.08685)" fill="black"/>
<rect x="9.19971" y="4.93207" width="0.558165" height="0.558165" transform="rotate(-16.1046 9.19971 4.93207)" fill="black"/>
<rect x="9.73584" y="4.77722" width="0.558165" height="0.558165" transform="rotate(-16.1046 9.73584 4.77722)" fill="black"/>
<rect x="10.272" y="4.62238" width="0.558165" height="0.558165" transform="rotate(-16.1046 10.272 4.62238)" fill="black"/>
<rect x="10.8086" y="4.46753" width="0.558165" height="0.558165" transform="rotate(-16.1046 10.8086 4.46753)" fill="black"/>
<rect x="11.3447" y="4.31274" width="0.558165" height="0.558165" transform="rotate(-16.1046 11.3447 4.31274)" fill="black"/>
<rect x="11.8809" y="4.1579" width="0.558165" height="0.558165" transform="rotate(-16.1046 11.8809 4.1579)" fill="black"/>
<rect x="12.417" y="4.00305" width="0.558165" height="0.558165" transform="rotate(-16.1046 12.417 4.00305)" fill="black"/>
<rect x="12.9536" y="3.84821" width="0.558165" height="0.558165" transform="rotate(-16.1046 12.9536 3.84821)" fill="black"/>
<rect x="13.4897" y="3.69342" width="0.558165" height="0.558165" transform="rotate(-16.1046 13.4897 3.69342)" fill="black"/>
<rect x="17.7798" y="2.45477" width="0.558165" height="0.558165" transform="rotate(-16.1046 17.7798 2.45477)" fill="black"/>
<rect x="18.3159" y="2.29993" width="0.558165" height="0.558165" transform="rotate(-16.1046 18.3159 2.29993)" fill="black"/>
<rect x="0.773926" y="7.94556" width="0.558165" height="0.558165" transform="rotate(-16.1046 0.773926 7.94556)" fill="black"/>
<rect x="1.31055" y="7.79071" width="0.558165" height="0.558165" transform="rotate(-16.1046 1.31055 7.79071)" fill="black"/>
<rect x="17.9346" y="2.99103" width="0.558165" height="0.558165" transform="rotate(-16.1046 17.9346 2.99103)" fill="black"/>
<rect x="18.4707" y="2.83618" width="0.558165" height="0.558165" transform="rotate(-16.1046 18.4707 2.83618)" fill="black"/>
<rect x="0.929199" y="8.48181" width="0.558165" height="0.558165" transform="rotate(-16.1046 0.929199 8.48181)" fill="black"/>
<rect x="1.46533" y="8.32703" width="0.558165" height="0.558165" transform="rotate(-16.1046 1.46533 8.32703)" fill="black"/>
<rect x="18.0894" y="3.52728" width="0.558165" height="0.558165" transform="rotate(-16.1046 18.0894 3.52728)" fill="black"/>
<rect x="18.6255" y="3.37244" width="0.558165" height="0.558165" transform="rotate(-16.1046 18.6255 3.37244)" fill="black"/>
<rect x="1.08398" y="9.01807" width="0.558165" height="0.558165" transform="rotate(-16.1046 1.08398 9.01807)" fill="black"/>
<rect x="1.62012" y="8.86322" width="0.558165" height="0.558165" transform="rotate(-16.1046 1.62012 8.86322)" fill="black"/>
<rect x="18.2441" y="4.06354" width="0.558165" height="0.558165" transform="rotate(-16.1046 18.2441 4.06354)" fill="black"/>
<rect x="18.7808" y="3.90869" width="0.558165" height="0.558165" transform="rotate(-16.1046 18.7808 3.90869)" fill="black"/>
<rect x="1.23877" y="9.55438" width="0.558165" height="0.558165" transform="rotate(-16.1046 1.23877 9.55438)" fill="black"/>
<rect x="1.7749" y="9.39954" width="0.558165" height="0.558165" transform="rotate(-16.1046 1.7749 9.39954)" fill="black"/>
<rect x="18.3989" y="4.59979" width="0.558165" height="0.558165" transform="rotate(-16.1046 18.3989 4.59979)" fill="black"/>
<rect x="18.9355" y="4.44495" width="0.558165" height="0.558165" transform="rotate(-16.1046 18.9355 4.44495)" fill="black"/>
<rect x="1.39355" y="10.0906" width="0.558165" height="0.558165" transform="rotate(-16.1046 1.39355 10.0906)" fill="black"/>
<rect x="1.92969" y="9.93579" width="0.558165" height="0.558165" transform="rotate(-16.1046 1.92969 9.93579)" fill="black"/>
<rect x="18.5537" y="5.13605" width="0.558165" height="0.558165" transform="rotate(-16.1046 18.5537 5.13605)" fill="black"/>
<rect x="19.0903" y="4.9812" width="0.558165" height="0.558165" transform="rotate(-16.1046 19.0903 4.9812)" fill="black"/>
<rect x="1.54834" y="10.6269" width="0.558165" height="0.558165" transform="rotate(-16.1046 1.54834 10.6269)" fill="black"/>
<rect x="2.08447" y="10.472" width="0.558165" height="0.558165" transform="rotate(-16.1046 2.08447 10.472)" fill="black"/>
<rect x="18.7085" y="5.6723" width="0.558165" height="0.558165" transform="rotate(-16.1046 18.7085 5.6723)" fill="black"/>
<rect x="19.2451" y="5.51752" width="0.558165" height="0.558165" transform="rotate(-16.1046 19.2451 5.51752)" fill="black"/>
<rect x="1.70312" y="11.1631" width="0.558165" height="0.558165" transform="rotate(-16.1046 1.70312 11.1631)" fill="black"/>
<rect x="2.23926" y="11.0083" width="0.558165" height="0.558165" transform="rotate(-16.1046 2.23926 11.0083)" fill="black"/>
<rect x="18.8638" y="6.20856" width="0.558165" height="0.558165" transform="rotate(-16.1046 18.8638 6.20856)" fill="black"/>
<rect x="19.3999" y="6.05377" width="0.558165" height="0.558165" transform="rotate(-16.1046 19.3999 6.05377)" fill="black"/>
<rect x="1.85791" y="11.6994" width="0.558165" height="0.558165" transform="rotate(-16.1046 1.85791 11.6994)" fill="black"/>
<rect x="2.39453" y="11.5446" width="0.558165" height="0.558165" transform="rotate(-16.1046 2.39453 11.5446)" fill="black"/>
<rect x="19.0186" y="6.74481" width="0.558165" height="0.558165" transform="rotate(-16.1046 19.0186 6.74481)" fill="black"/>
<rect x="19.5547" y="6.59003" width="0.558165" height="0.558165" transform="rotate(-16.1046 19.5547 6.59003)" fill="black"/>
<rect x="2.0127" y="12.2357" width="0.558165" height="0.558165" transform="rotate(-16.1046 2.0127 12.2357)" fill="black"/>
<rect x="2.54932" y="12.0808" width="0.558165" height="0.558165" transform="rotate(-16.1046 2.54932 12.0808)" fill="black"/>
<rect x="19.1733" y="7.28107" width="0.558165" height="0.558165" transform="rotate(-16.1046 19.1733 7.28107)" fill="black"/>
<rect x="19.7095" y="7.12628" width="0.558165" height="0.558165" transform="rotate(-16.1046 19.7095 7.12628)" fill="black"/>
<rect x="2.16748" y="12.7719" width="0.558165" height="0.558165" transform="rotate(-16.1046 2.16748 12.7719)" fill="black"/>
<rect x="2.7041" y="12.6171" width="0.558165" height="0.558165" transform="rotate(-16.1046 2.7041 12.6171)" fill="black"/>
<rect x="19.3281" y="7.81738" width="0.558165" height="0.558165" transform="rotate(-16.1046 19.3281 7.81738)" fill="black"/>
<rect x="19.8643" y="7.66254" width="0.558165" height="0.558165" transform="rotate(-16.1046 19.8643 7.66254)" fill="black"/>
<rect x="2.32275" y="13.3082" width="0.558165" height="0.558165" transform="rotate(-16.1046 2.32275 13.3082)" fill="black"/>
<rect x="2.85889" y="13.1534" width="0.558165" height="0.558165" transform="rotate(-16.1046 2.85889 13.1534)" fill="black"/>
<rect x="19.4829" y="8.35364" width="0.558165" height="0.558165" transform="rotate(-16.1046 19.4829 8.35364)" fill="black"/>
<rect x="20.019" y="8.19879" width="0.558165" height="0.558165" transform="rotate(-16.1046 20.019 8.19879)" fill="black"/>
<rect x="2.47754" y="13.8444" width="0.558165" height="0.558165" transform="rotate(-16.1046 2.47754 13.8444)" fill="black"/>
<rect x="3.01367" y="13.6896" width="0.558165" height="0.558165" transform="rotate(-16.1046 3.01367 13.6896)" fill="black"/>
<rect x="19.6377" y="8.88989" width="0.558165" height="0.558165" transform="rotate(-16.1046 19.6377 8.88989)" fill="black"/>
<rect x="20.1738" y="8.73505" width="0.558165" height="0.558165" transform="rotate(-16.1046 20.1738 8.73505)" fill="black"/>
<rect x="2.63232" y="14.3807" width="0.558165" height="0.558165" transform="rotate(-16.1046 2.63232 14.3807)" fill="black"/>
<rect x="3.16846" y="14.2259" width="0.558165" height="0.558165" transform="rotate(-16.1046 3.16846 14.2259)" fill="black"/>
<rect x="19.7925" y="9.42615" width="0.558165" height="0.558165" transform="rotate(-16.1046 19.7925 9.42615)" fill="black"/>
<rect x="20.3286" y="9.2713" width="0.558165" height="0.558165" transform="rotate(-16.1046 20.3286 9.2713)" fill="black"/>
<rect x="2.78711" y="14.9169" width="0.558165" height="0.558165" transform="rotate(-16.1046 2.78711 14.9169)" fill="black"/>
<rect x="3.32324" y="14.7621" width="0.558165" height="0.558165" transform="rotate(-16.1046 3.32324 14.7621)" fill="black"/>
<rect x="19.9473" y="9.9624" width="0.558165" height="0.558165" transform="rotate(-16.1046 19.9473 9.9624)" fill="black"/>
<rect x="20.4834" y="9.80756" width="0.558165" height="0.558165" transform="rotate(-16.1046 20.4834 9.80756)" fill="black"/>
<rect x="2.94189" y="15.4532" width="0.558165" height="0.558165" transform="rotate(-16.1046 2.94189 15.4532)" fill="black"/>
<rect x="3.47803" y="15.2984" width="0.558165" height="0.558165" transform="rotate(-16.1046 3.47803 15.2984)" fill="black"/>
<rect x="20.1021" y="10.4987" width="0.558165" height="0.558165" transform="rotate(-16.1046 20.1021 10.4987)" fill="black"/>
<rect x="20.6387" y="10.3438" width="0.558165" height="0.558165" transform="rotate(-16.1046 20.6387 10.3438)" fill="black"/>
<rect x="3.09668" y="15.9895" width="0.558165" height="0.558165" transform="rotate(-16.1046 3.09668 15.9895)" fill="black"/>
<rect x="3.63281" y="15.8347" width="0.558165" height="0.558165" transform="rotate(-16.1046 3.63281 15.8347)" fill="black"/>
<rect x="20.2568" y="11.0349" width="0.558165" height="0.558165" transform="rotate(-16.1046 20.2568 11.0349)" fill="black"/>
<rect x="20.7935" y="10.8801" width="0.558165" height="0.558165" transform="rotate(-16.1046 20.7935 10.8801)" fill="black"/>
<rect x="3.25146" y="16.5258" width="0.558165" height="0.558165" transform="rotate(-16.1046 3.25146 16.5258)" fill="black"/>
<rect x="3.78809" y="16.3709" width="0.558165" height="0.558165" transform="rotate(-16.1046 3.78809 16.3709)" fill="black"/>
<rect x="20.4121" y="11.5712" width="0.558165" height="0.558165" transform="rotate(-16.1046 20.4121 11.5712)" fill="black"/>
<rect x="20.9482" y="11.4164" width="0.558165" height="0.558165" transform="rotate(-16.1046 20.9482 11.4164)" fill="black"/>
<rect x="3.40625" y="17.062" width="0.558165" height="0.558165" transform="rotate(-16.1046 3.40625 17.062)" fill="black"/>
<rect x="3.94287" y="16.9072" width="0.558165" height="0.558165" transform="rotate(-16.1046 3.94287 16.9072)" fill="black"/>
<rect x="20.5669" y="12.1075" width="0.558165" height="0.558165" transform="rotate(-16.1046 20.5669 12.1075)" fill="black"/>
<rect x="21.103" y="11.9526" width="0.558165" height="0.558165" transform="rotate(-16.1046 21.103 11.9526)" fill="black"/>
<rect x="3.56104" y="17.5983" width="0.558165" height="0.558165" transform="rotate(-16.1046 3.56104 17.5983)" fill="black"/>
<rect x="4.09717" y="17.4434" width="0.558165" height="0.558165" transform="rotate(-16.1046 4.09717 17.4434)" fill="black"/>
<rect x="20.7217" y="12.6437" width="0.558165" height="0.558165" transform="rotate(-16.1046 20.7217 12.6437)" fill="black"/>
<rect x="21.2578" y="12.4889" width="0.558165" height="0.558165" transform="rotate(-16.1046 21.2578 12.4889)" fill="black"/>
<rect x="3.71582" y="18.1345" width="0.558165" height="0.558165" transform="rotate(-16.1046 3.71582 18.1345)" fill="black"/>
<rect x="4.25244" y="17.9797" width="0.558165" height="0.558165" transform="rotate(-16.1046 4.25244 17.9797)" fill="black"/>
<rect x="20.8765" y="13.18" width="0.558165" height="0.558165" transform="rotate(-16.1046 20.8765 13.18)" fill="black"/>
<rect x="21.4126" y="13.0251" width="0.558165" height="0.558165" transform="rotate(-16.1046 21.4126 13.0251)" fill="black"/>
<rect x="3.87061" y="18.6708" width="0.558165" height="0.558165" transform="rotate(-16.1046 3.87061 18.6708)" fill="black"/>
<rect x="4.40723" y="18.516" width="0.558165" height="0.558165" transform="rotate(-16.1046 4.40723 18.516)" fill="black"/>
<rect x="21.0312" y="13.7162" width="0.558165" height="0.558165" transform="rotate(-16.1046 21.0312 13.7162)" fill="black"/>
<rect x="21.5674" y="13.5614" width="0.558165" height="0.558165" transform="rotate(-16.1046 21.5674 13.5614)" fill="black"/>
<rect x="4.02539" y="19.207" width="0.558165" height="0.558165" transform="rotate(-16.1046 4.02539 19.207)" fill="black"/>
<rect x="4.56201" y="19.0522" width="0.558165" height="0.558165" transform="rotate(-16.1046 4.56201 19.0522)" fill="black"/>
<rect x="21.186" y="14.2525" width="0.558165" height="0.558165" transform="rotate(-16.1046 21.186 14.2525)" fill="black"/>
<rect x="21.7222" y="14.0977" width="0.558165" height="0.558165" transform="rotate(-16.1046 21.7222 14.0977)" fill="black"/>
<rect x="4.18066" y="19.7433" width="0.558165" height="0.558165" transform="rotate(-16.1046 4.18066 19.7433)" fill="black"/>
<rect x="4.7168" y="19.5885" width="0.558165" height="0.558165" transform="rotate(-16.1046 4.7168 19.5885)" fill="black"/>
<rect x="21.3408" y="14.7888" width="0.558165" height="0.558165" transform="rotate(-16.1046 21.3408 14.7888)" fill="black"/>
<rect x="21.877" y="14.6339" width="0.558165" height="0.558165" transform="rotate(-16.1046 21.877 14.6339)" fill="black"/>
<rect x="4.33545" y="20.2796" width="0.558165" height="0.558165" transform="rotate(-16.1046 4.33545 20.2796)" fill="black"/>
<rect x="4.87158" y="20.1248" width="0.558165" height="0.558165" transform="rotate(-16.1046 4.87158 20.1248)" fill="black"/>
<rect x="21.4956" y="15.325" width="0.558165" height="0.558165" transform="rotate(-16.1046 21.4956 15.325)" fill="black"/>
<rect x="22.0317" y="15.1702" width="0.558165" height="0.558165" transform="rotate(-16.1046 22.0317 15.1702)" fill="black"/>
<rect x="4.49023" y="20.8159" width="0.558165" height="0.558165" transform="rotate(-16.1046 4.49023 20.8159)" fill="black"/>
<rect x="5.02637" y="20.661" width="0.558165" height="0.558165" transform="rotate(-16.1046 5.02637 20.661)" fill="black"/>
<rect x="21.6504" y="15.8613" width="0.558165" height="0.558165" transform="rotate(-16.1046 21.6504 15.8613)" fill="black"/>
<rect x="22.1865" y="15.7064" width="0.558165" height="0.558165" transform="rotate(-16.1046 22.1865 15.7064)" fill="black"/>
<rect x="4.64502" y="21.3521" width="0.558165" height="0.558165" transform="rotate(-16.1046 4.64502 21.3521)" fill="black"/>
<rect x="5.18115" y="21.1973" width="0.558165" height="0.558165" transform="rotate(-16.1046 5.18115 21.1973)" fill="black"/>
<rect x="21.8052" y="16.3975" width="0.558165" height="0.558165" transform="rotate(-16.1046 21.8052 16.3975)" fill="black"/>
<rect x="22.3418" y="16.2427" width="0.558165" height="0.558165" transform="rotate(-16.1046 22.3418 16.2427)" fill="black"/>
<rect x="4.7998" y="21.8884" width="0.558165" height="0.558165" transform="rotate(-16.1046 4.7998 21.8884)" fill="black"/>
<rect x="5.33594" y="21.7335" width="0.558165" height="0.558165" transform="rotate(-16.1046 5.33594 21.7335)" fill="black"/>
<rect x="21.96" y="16.9338" width="0.558165" height="0.558165" transform="rotate(-16.1046 21.96 16.9338)" fill="black"/>
<rect x="22.4966" y="16.779" width="0.558165" height="0.558165" transform="rotate(-16.1046 22.4966 16.779)" fill="black"/>
<rect x="4.95459" y="22.4246" width="0.558165" height="0.558165" transform="rotate(-16.1046 4.95459 22.4246)" fill="black"/>
<rect x="5.49072" y="22.2698" width="0.558165" height="0.558165" transform="rotate(-16.1046 5.49072 22.2698)" fill="black"/>
<rect x="22.1152" y="17.4701" width="0.558165" height="0.558165" transform="rotate(-16.1046 22.1152 17.4701)" fill="black"/>
<rect x="22.6514" y="17.3152" width="0.558165" height="0.558165" transform="rotate(-16.1046 22.6514 17.3152)" fill="black"/>
<rect x="5.10938" y="22.9609" width="0.558165" height="0.558165" transform="rotate(-16.1046 5.10938 22.9609)" fill="black"/>
<rect x="5.64551" y="22.806" width="0.558165" height="0.558165" transform="rotate(-16.1046 5.64551 22.806)" fill="black"/>
<rect x="22.27" y="18.0063" width="0.558165" height="0.558165" transform="rotate(-16.1046 22.27 18.0063)" fill="black"/>
<rect x="22.8062" y="17.8515" width="0.558165" height="0.558165" transform="rotate(-16.1046 22.8062 17.8515)" fill="black"/>
<rect x="5.26416" y="23.4971" width="0.558165" height="0.558165" transform="rotate(-16.1046 5.26416 23.4971)" fill="black"/>
<rect x="5.80029" y="23.3423" width="0.558165" height="0.558165" transform="rotate(-16.1046 5.80029 23.3423)" fill="black"/>
<rect x="22.4248" y="18.5426" width="0.558165" height="0.558165" transform="rotate(-16.1046 22.4248 18.5426)" fill="black"/>
<rect x="22.9609" y="18.3878" width="0.558165" height="0.558165" transform="rotate(-16.1046 22.9609 18.3878)" fill="black"/>
<rect x="5.41895" y="24.0334" width="0.558165" height="0.558165" transform="rotate(-16.1046 5.41895 24.0334)" fill="black"/>
<rect x="5.95557" y="23.8785" width="0.558165" height="0.558165" transform="rotate(-16.1046 5.95557 23.8785)" fill="black"/>
<rect x="22.5796" y="19.0788" width="0.558165" height="0.558165" transform="rotate(-16.1046 22.5796 19.0788)" fill="black"/>
<rect x="23.1157" y="18.924" width="0.558165" height="0.558165" transform="rotate(-16.1046 23.1157 18.924)" fill="black"/>
<rect x="5.57373" y="24.5696" width="0.558165" height="0.558165" transform="rotate(-16.1046 5.57373 24.5696)" fill="black"/>
<rect x="6.11035" y="24.4149" width="0.558165" height="0.558165" transform="rotate(-16.1046 6.11035 24.4149)" fill="black"/>
<rect x="22.7344" y="19.6151" width="0.558165" height="0.558165" transform="rotate(-16.1046 22.7344 19.6151)" fill="black"/>
<rect x="23.2705" y="19.4603" width="0.558165" height="0.558165" transform="rotate(-16.1046 23.2705 19.4603)" fill="black"/>
<rect x="5.72852" y="25.1059" width="0.558165" height="0.558165" transform="rotate(-16.1046 5.72852 25.1059)" fill="black"/>
<rect x="6.26514" y="24.9511" width="0.558165" height="0.558165" transform="rotate(-16.1046 6.26514 24.9511)" fill="black"/>
<rect x="22.8892" y="20.1514" width="0.558165" height="0.558165" transform="rotate(-16.1046 22.8892 20.1514)" fill="black"/>
<rect x="23.4253" y="19.9965" width="0.558165" height="0.558165" transform="rotate(-16.1046 23.4253 19.9965)" fill="black"/>
<rect x="5.88379" y="25.6422" width="0.558165" height="0.558165" transform="rotate(-16.1046 5.88379 25.6422)" fill="black"/>
<rect x="6.41992" y="25.4874" width="0.558165" height="0.558165" transform="rotate(-16.1046 6.41992 25.4874)" fill="black"/>
<rect x="23.0439" y="20.6876" width="0.558165" height="0.558165" transform="rotate(-16.1046 23.0439 20.6876)" fill="black"/>
<rect x="23.5801" y="20.5328" width="0.558165" height="0.558165" transform="rotate(-16.1046 23.5801 20.5328)" fill="black"/>
<rect x="6.03857" y="26.1785" width="0.558165" height="0.558165" transform="rotate(-16.1046 6.03857 26.1785)" fill="black"/>
<rect x="6.57471" y="26.0236" width="0.558165" height="0.558165" transform="rotate(-16.1046 6.57471 26.0236)" fill="black"/>
<rect x="23.1987" y="21.2239" width="0.558165" height="0.558165" transform="rotate(-16.1046 23.1987 21.2239)" fill="black"/>
<rect x="23.7354" y="21.069" width="0.558165" height="0.558165" transform="rotate(-16.1046 23.7354 21.069)" fill="black"/>
<rect x="6.19336" y="26.7147" width="0.558165" height="0.558165" transform="rotate(-16.1046 6.19336 26.7147)" fill="black"/>
<rect x="6.72949" y="26.5599" width="0.558165" height="0.558165" transform="rotate(-16.1046 6.72949 26.5599)" fill="black"/>
<rect x="23.3535" y="21.7601" width="0.558165" height="0.558165" transform="rotate(-16.1046 23.3535 21.7601)" fill="black"/>
<rect x="23.8901" y="21.6053" width="0.558165" height="0.558165" transform="rotate(-16.1046 23.8901 21.6053)" fill="black"/>
<rect x="6.34814" y="27.251" width="0.558165" height="0.558165" transform="rotate(-16.1046 6.34814 27.251)" fill="black"/>
<rect x="6.88428" y="27.0961" width="0.558165" height="0.558165" transform="rotate(-16.1046 6.88428 27.0961)" fill="black"/>
<rect x="23.5083" y="22.2964" width="0.558165" height="0.558165" transform="rotate(-16.1046 23.5083 22.2964)" fill="black"/>
<rect x="24.0449" y="22.1416" width="0.558165" height="0.558165" transform="rotate(-16.1046 24.0449 22.1416)" fill="black"/>
<rect x="6.50293" y="27.7872" width="0.558165" height="0.558165" transform="rotate(-16.1046 6.50293 27.7872)" fill="black"/>
<rect x="7.03906" y="27.6324" width="0.558165" height="0.558165" transform="rotate(-16.1046 7.03906 27.6324)" fill="black"/>
<rect x="23.6631" y="22.8326" width="0.558165" height="0.558165" transform="rotate(-16.1046 23.6631 22.8326)" fill="black"/>
<rect x="24.1997" y="22.6779" width="0.558165" height="0.558165" transform="rotate(-16.1046 24.1997 22.6779)" fill="black"/>
<rect x="6.65771" y="28.3235" width="0.558165" height="0.558165" transform="rotate(-16.1046 6.65771 28.3235)" fill="black"/>
<rect x="7.19385" y="28.1686" width="0.558165" height="0.558165" transform="rotate(-16.1046 7.19385 28.1686)" fill="black"/>
<rect x="23.8184" y="23.3689" width="0.558165" height="0.558165" transform="rotate(-16.1046 23.8184 23.3689)" fill="black"/>
<rect x="24.3545" y="23.2141" width="0.558165" height="0.558165" transform="rotate(-16.1046 24.3545 23.2141)" fill="black"/>
<rect x="6.8125" y="28.8597" width="0.558165" height="0.558165" transform="rotate(-16.1046 6.8125 28.8597)" fill="black"/>
<rect x="7.34912" y="28.705" width="0.558165" height="0.558165" transform="rotate(-16.1046 7.34912 28.705)" fill="black"/>
<rect x="23.9727" y="23.9052" width="0.558165" height="0.558165" transform="rotate(-16.1046 23.9727 23.9052)" fill="black"/>
<rect x="24.5093" y="23.7504" width="0.558165" height="0.558165" transform="rotate(-16.1046 24.5093 23.7504)" fill="black"/>
<rect x="6.96729" y="29.396" width="0.558165" height="0.558165" transform="rotate(-16.1046 6.96729 29.396)" fill="black"/>
<rect x="7.50391" y="29.2412" width="0.558165" height="0.558165" transform="rotate(-16.1046 7.50391 29.2412)" fill="black"/>
<rect x="24.1279" y="24.4415" width="0.558165" height="0.558165" transform="rotate(-16.1046 24.1279 24.4415)" fill="black"/>
<rect x="24.6641" y="24.2866" width="0.558165" height="0.558165" transform="rotate(-16.1046 24.6641 24.2866)" fill="black"/>
<rect x="7.12207" y="29.9323" width="0.558165" height="0.558165" transform="rotate(-16.1046 7.12207 29.9323)" fill="black"/>
<rect x="7.65869" y="29.7775" width="0.558165" height="0.558165" transform="rotate(-16.1046 7.65869 29.7775)" fill="black"/>
<rect x="24.2827" y="24.9777" width="0.558165" height="0.558165" transform="rotate(-16.1046 24.2827 24.9777)" fill="black"/>
<rect x="24.8188" y="24.8229" width="0.558165" height="0.558165" transform="rotate(-16.1046 24.8188 24.8229)" fill="black"/>
<rect x="7.27734" y="30.4685" width="0.558165" height="0.558165" transform="rotate(-16.1046 7.27734 30.4685)" fill="black"/>
<rect x="7.81348" y="30.3137" width="0.558165" height="0.558165" transform="rotate(-16.1046 7.81348 30.3137)" fill="black"/>
<rect x="24.4375" y="25.514" width="0.558165" height="0.558165" transform="rotate(-16.1046 24.4375 25.514)" fill="black"/>
<rect x="24.9736" y="25.3591" width="0.558165" height="0.558165" transform="rotate(-16.1046 24.9736 25.3591)" fill="black"/>
<rect x="7.43213" y="31.0048" width="0.558165" height="0.558165" transform="rotate(-16.1046 7.43213 31.0048)" fill="black"/>
<rect x="7.96826" y="30.85" width="0.558165" height="0.558165" transform="rotate(-16.1046 7.96826 30.85)" fill="black"/>
<rect x="24.5923" y="26.0502" width="0.558165" height="0.558165" transform="rotate(-16.1046 24.5923 26.0502)" fill="black"/>
<rect x="25.1284" y="25.8954" width="0.558165" height="0.558165" transform="rotate(-16.1046 25.1284 25.8954)" fill="black"/>
<rect x="7.58691" y="31.5411" width="0.558165" height="0.558165" transform="rotate(-16.1046 7.58691 31.5411)" fill="black"/>
<rect x="8.12305" y="31.3862" width="0.558165" height="0.558165" transform="rotate(-16.1046 8.12305 31.3862)" fill="black"/>
<rect x="24.7471" y="26.5865" width="0.558165" height="0.558165" transform="rotate(-16.1046 24.7471 26.5865)" fill="black"/>
<rect x="25.2832" y="26.4317" width="0.558165" height="0.558165" transform="rotate(-16.1046 25.2832 26.4317)" fill="black"/>
<rect x="7.7417" y="32.0773" width="0.558165" height="0.558165" transform="rotate(-16.1046 7.7417 32.0773)" fill="black"/>
<rect x="8.27783" y="31.9225" width="0.558165" height="0.558165" transform="rotate(-16.1046 8.27783 31.9225)" fill="black"/>
<rect x="24.9019" y="27.1227" width="0.558165" height="0.558165" transform="rotate(-16.1046 24.9019 27.1227)" fill="black"/>
<rect x="25.438" y="26.968" width="0.558165" height="0.558165" transform="rotate(-16.1046 25.438 26.968)" fill="black"/>
<rect x="7.89648" y="32.6136" width="0.558165" height="0.558165" transform="rotate(-16.1046 7.89648 32.6136)" fill="black"/>
<rect x="8.43262" y="32.4587" width="0.558165" height="0.558165" transform="rotate(-16.1046 8.43262 32.4587)" fill="black"/>
<rect x="25.0566" y="27.659" width="0.558165" height="0.558165" transform="rotate(-16.1046 25.0566 27.659)" fill="black"/>
<rect x="25.5933" y="27.5042" width="0.558165" height="0.558165" transform="rotate(-16.1046 25.5933 27.5042)" fill="black"/>
<rect x="8.05127" y="33.1498" width="0.558165" height="0.558165" transform="rotate(-16.1046 8.05127 33.1498)" fill="black"/>
<rect x="8.5874" y="32.995" width="0.558165" height="0.558165" transform="rotate(-16.1046 8.5874 32.995)" fill="black"/>
<rect x="25.2114" y="28.1953" width="0.558165" height="0.558165" transform="rotate(-16.1046 25.2114 28.1953)" fill="black"/>
<rect x="25.748" y="28.0404" width="0.558165" height="0.558165" transform="rotate(-16.1046 25.748 28.0404)" fill="black"/>
<rect x="8.20605" y="33.6861" width="0.558165" height="0.558165" transform="rotate(-16.1046 8.20605 33.6861)" fill="black"/>
<rect x="8.74268" y="33.5312" width="0.558165" height="0.558165" transform="rotate(-16.1046 8.74268 33.5312)" fill="black"/>
<rect x="25.3662" y="28.7316" width="0.558165" height="0.558165" transform="rotate(-16.1046 25.3662 28.7316)" fill="black"/>
<rect x="25.9028" y="28.5767" width="0.558165" height="0.558165" transform="rotate(-16.1046 25.9028 28.5767)" fill="black"/>
<rect x="8.36084" y="34.2224" width="0.558165" height="0.558165" transform="rotate(-16.1046 8.36084 34.2224)" fill="black"/>
<rect x="8.89697" y="34.0676" width="0.558165" height="0.558165" transform="rotate(-16.1046 8.89697 34.0676)" fill="black"/>
<rect x="25.5215" y="29.2678" width="0.558165" height="0.558165" transform="rotate(-16.1046 25.5215 29.2678)" fill="black"/>
<rect x="26.0576" y="29.113" width="0.558165" height="0.558165" transform="rotate(-16.1046 26.0576 29.113)" fill="black"/>
<rect x="8.51562" y="34.7586" width="0.558165" height="0.558165" transform="rotate(-16.1046 8.51562 34.7586)" fill="black"/>
<rect x="9.05176" y="34.6038" width="0.558165" height="0.558165" transform="rotate(-16.1046 9.05176 34.6038)" fill="black"/>
<rect x="25.6763" y="29.8041" width="0.558165" height="0.558165" transform="rotate(-16.1046 25.6763 29.8041)" fill="black"/>
<rect x="26.2124" y="29.6492" width="0.558165" height="0.558165" transform="rotate(-16.1046 26.2124 29.6492)" fill="black"/>
<rect x="8.67041" y="35.2949" width="0.558165" height="0.558165" transform="rotate(-16.1046 8.67041 35.2949)" fill="black"/>
<rect x="9.20703" y="35.14" width="0.558165" height="0.558165" transform="rotate(-16.1046 9.20703 35.14)" fill="black"/>
<rect x="25.8311" y="30.3403" width="0.558165" height="0.558165" transform="rotate(-16.1046 25.8311 30.3403)" fill="black"/>
<rect x="26.3672" y="30.1855" width="0.558165" height="0.558165" transform="rotate(-16.1046 26.3672 30.1855)" fill="black"/>
<rect x="8.8252" y="35.8311" width="0.558165" height="0.558165" transform="rotate(-16.1046 8.8252 35.8311)" fill="black"/>
<rect x="9.36182" y="35.6763" width="0.558165" height="0.558165" transform="rotate(-16.1046 9.36182 35.6763)" fill="black"/>
<rect x="25.9858" y="30.8766" width="0.558165" height="0.558165" transform="rotate(-16.1046 25.9858 30.8766)" fill="black"/>
<rect x="26.522" y="30.7217" width="0.558165" height="0.558165" transform="rotate(-16.1046 26.522 30.7217)" fill="black"/>
<rect x="8.97998" y="36.3674" width="0.558165" height="0.558165" transform="rotate(-16.1046 8.97998 36.3674)" fill="black"/>
<rect x="9.5166" y="36.2126" width="0.558165" height="0.558165" transform="rotate(-16.1046 9.5166 36.2126)" fill="black"/>
<rect x="26.1406" y="31.4128" width="0.558165" height="0.558165" transform="rotate(-16.1046 26.1406 31.4128)" fill="black"/>
<rect x="26.6768" y="31.2581" width="0.558165" height="0.558165" transform="rotate(-16.1046 26.6768 31.2581)" fill="black"/>
<rect x="9.13525" y="36.9037" width="0.558165" height="0.558165" transform="rotate(-16.1046 9.13525 36.9037)" fill="black"/>
<rect x="9.67139" y="36.7488" width="0.558165" height="0.558165" transform="rotate(-16.1046 9.67139 36.7488)" fill="black"/>
<rect x="26.2954" y="31.9491" width="0.558165" height="0.558165" transform="rotate(-16.1046 26.2954 31.9491)" fill="black"/>
<rect x="26.8315" y="31.7943" width="0.558165" height="0.558165" transform="rotate(-16.1046 26.8315 31.7943)" fill="black"/>
<rect x="9.82617" y="37.2851" width="0.558165" height="0.558165" transform="rotate(-16.1046 9.82617 37.2851)" fill="black"/>
<rect x="26.4502" y="32.4854" width="0.558165" height="0.558165" transform="rotate(-16.1046 26.4502 32.4854)" fill="black"/>
<rect x="26.9863" y="32.3305" width="0.558165" height="0.558165" transform="rotate(-16.1046 26.9863 32.3305)" fill="black"/>
<rect x="9.98096" y="37.8214" width="0.558165" height="0.558165" transform="rotate(-16.1046 9.98096 37.8214)" fill="black"/>
<rect x="10.5171" y="37.6665" width="0.558165" height="0.558165" transform="rotate(-16.1046 10.5171 37.6665)" fill="black"/>
<rect x="26.605" y="33.0216" width="0.558165" height="0.558165" transform="rotate(-16.1046 26.605 33.0216)" fill="black"/>
<rect x="10.6724" y="38.2028" width="0.558165" height="0.558165" transform="rotate(-16.1046 10.6724 38.2028)" fill="black"/>
<rect x="11.2085" y="38.048" width="0.558165" height="0.558165" transform="rotate(-16.1046 11.2085 38.048)" fill="black"/>
<rect x="11.7446" y="37.8931" width="0.558165" height="0.558165" transform="rotate(-16.1046 11.7446 37.8931)" fill="black"/>
<rect x="12.2808" y="37.7383" width="0.558165" height="0.558165" transform="rotate(-16.1046 12.2808 37.7383)" fill="black"/>
<rect x="12.8174" y="37.5834" width="0.558165" height="0.558165" transform="rotate(-16.1046 12.8174 37.5834)" fill="black"/>
<rect x="13.3535" y="37.4286" width="0.558165" height="0.558165" transform="rotate(-16.1046 13.3535 37.4286)" fill="black"/>
<rect x="13.8896" y="37.2738" width="0.558165" height="0.558165" transform="rotate(-16.1046 13.8896 37.2738)" fill="black"/>
<rect x="14.4258" y="37.119" width="0.558165" height="0.558165" transform="rotate(-16.1046 14.4258 37.119)" fill="black"/>
<rect x="14.9619" y="36.9642" width="0.558165" height="0.558165" transform="rotate(-16.1046 14.9619 36.9642)" fill="black"/>
<rect x="15.4985" y="36.8093" width="0.558165" height="0.558165" transform="rotate(-16.1046 15.4985 36.8093)" fill="black"/>
<rect x="16.0347" y="36.6545" width="0.558165" height="0.558165" transform="rotate(-16.1046 16.0347 36.6545)" fill="black"/>
<rect x="16.5708" y="36.4997" width="0.558165" height="0.558165" transform="rotate(-16.1046 16.5708 36.4997)" fill="black"/>
<rect x="17.1069" y="36.3448" width="0.558165" height="0.558165" transform="rotate(-16.1046 17.1069 36.3448)" fill="black"/>
<rect x="17.6436" y="36.19" width="0.558165" height="0.558165" transform="rotate(-16.1046 17.6436 36.19)" fill="black"/>
<rect x="18.1797" y="36.0352" width="0.558165" height="0.558165" transform="rotate(-16.1046 18.1797 36.0352)" fill="black"/>
<rect x="18.7158" y="35.8804" width="0.558165" height="0.558165" transform="rotate(-16.1046 18.7158 35.8804)" fill="black"/>
<rect x="19.2524" y="35.7255" width="0.558165" height="0.558165" transform="rotate(-16.1046 19.2524 35.7255)" fill="black"/>
<rect x="19.7886" y="35.5707" width="0.558165" height="0.558165" transform="rotate(-16.1046 19.7886 35.5707)" fill="black"/>
<rect x="20.3247" y="35.4158" width="0.558165" height="0.558165" transform="rotate(-16.1046 20.3247 35.4158)" fill="black"/>
<rect x="20.8608" y="35.261" width="0.558165" height="0.558165" transform="rotate(-16.1046 20.8608 35.261)" fill="black"/>
<rect x="21.3975" y="35.1062" width="0.558165" height="0.558165" transform="rotate(-16.1046 21.3975 35.1062)" fill="black"/>
<rect x="21.9336" y="34.9514" width="0.558165" height="0.558165" transform="rotate(-16.1046 21.9336 34.9514)" fill="black"/>
<rect x="22.4697" y="34.7965" width="0.558165" height="0.558165" transform="rotate(-16.1046 22.4697 34.7965)" fill="black"/>
<rect x="23.0063" y="34.6417" width="0.558165" height="0.558165" transform="rotate(-16.1046 23.0063 34.6417)" fill="black"/>
<rect x="23.5425" y="34.4869" width="0.558165" height="0.558165" transform="rotate(-16.1046 23.5425 34.4869)" fill="black"/>
<rect x="24.0786" y="34.332" width="0.558165" height="0.558165" transform="rotate(-16.1046 24.0786 34.332)" fill="black"/>
<rect x="24.6147" y="34.1772" width="0.558165" height="0.558165" transform="rotate(-16.1046 24.6147 34.1772)" fill="black"/>
<rect x="25.1514" y="34.0224" width="0.558165" height="0.558165" transform="rotate(-16.1046 25.1514 34.0224)" fill="black"/>
<rect x="25.6875" y="33.8676" width="0.558165" height="0.558165" transform="rotate(-16.1046 25.6875 33.8676)" fill="black"/>
<rect x="26.2236" y="33.7128" width="0.558165" height="0.558165" transform="rotate(-16.1046 26.2236 33.7128)" fill="black"/>
<rect x="26.7598" y="33.5579" width="0.558165" height="0.558165" transform="rotate(-16.1046 26.7598 33.5579)" fill="black"/>
<rect x="11.3633" y="38.5842" width="0.558165" height="0.558165" transform="rotate(-16.1046 11.3633 38.5842)" fill="black"/>
<rect x="11.8994" y="38.4294" width="0.558165" height="0.558165" transform="rotate(-16.1046 11.8994 38.4294)" fill="black"/>
<rect x="12.4355" y="38.2746" width="0.558165" height="0.558165" transform="rotate(-16.1046 12.4355 38.2746)" fill="black"/>
<rect x="12.9722" y="38.1198" width="0.558165" height="0.558165" transform="rotate(-16.1046 12.9722 38.1198)" fill="black"/>
<rect x="13.5083" y="37.9649" width="0.558165" height="0.558165" transform="rotate(-16.1046 13.5083 37.9649)" fill="black"/>
<rect x="14.0444" y="37.8101" width="0.558165" height="0.558165" transform="rotate(-16.1046 14.0444 37.8101)" fill="black"/>
<rect x="14.5806" y="37.6553" width="0.558165" height="0.558165" transform="rotate(-16.1046 14.5806 37.6553)" fill="black"/>
<rect x="15.1172" y="37.5004" width="0.558165" height="0.558165" transform="rotate(-16.1046 15.1172 37.5004)" fill="black"/>
<rect x="15.6533" y="37.3456" width="0.558165" height="0.558165" transform="rotate(-16.1046 15.6533 37.3456)" fill="black"/>
<rect x="16.1895" y="37.1908" width="0.558165" height="0.558165" transform="rotate(-16.1046 16.1895 37.1908)" fill="black"/>
<rect x="16.7256" y="37.0359" width="0.558165" height="0.558165" transform="rotate(-16.1046 16.7256 37.0359)" fill="black"/>
<rect x="17.2622" y="36.8811" width="0.558165" height="0.558165" transform="rotate(-16.1046 17.2622 36.8811)" fill="black"/>
<rect x="17.7983" y="36.7263" width="0.558165" height="0.558165" transform="rotate(-16.1046 17.7983 36.7263)" fill="black"/>
<rect x="18.3345" y="36.5714" width="0.558165" height="0.558165" transform="rotate(-16.1046 18.3345 36.5714)" fill="black"/>
<rect x="18.8706" y="36.4166" width="0.558165" height="0.558165" transform="rotate(-16.1046 18.8706 36.4166)" fill="black"/>
<rect x="19.4072" y="36.2618" width="0.558165" height="0.558165" transform="rotate(-16.1046 19.4072 36.2618)" fill="black"/>
<rect x="19.9434" y="36.1069" width="0.558165" height="0.558165" transform="rotate(-16.1046 19.9434 36.1069)" fill="black"/>
<rect x="20.4795" y="35.9521" width="0.558165" height="0.558165" transform="rotate(-16.1046 20.4795 35.9521)" fill="black"/>
<rect x="21.0161" y="35.7973" width="0.558165" height="0.558165" transform="rotate(-16.1046 21.0161 35.7973)" fill="black"/>
<rect x="21.5522" y="35.6425" width="0.558165" height="0.558165" transform="rotate(-16.1046 21.5522 35.6425)" fill="black"/>
<rect x="22.0884" y="35.4876" width="0.558165" height="0.558165" transform="rotate(-16.1046 22.0884 35.4876)" fill="black"/>
<rect x="22.6245" y="35.3328" width="0.558165" height="0.558165" transform="rotate(-16.1046 22.6245 35.3328)" fill="black"/>
<rect x="23.1606" y="35.1779" width="0.558165" height="0.558165" transform="rotate(-16.1046 23.1606 35.1779)" fill="black"/>
<rect x="23.6973" y="35.0231" width="0.558165" height="0.558165" transform="rotate(-16.1046 23.6973 35.0231)" fill="black"/>
<rect x="24.2334" y="34.8683" width="0.558165" height="0.558165" transform="rotate(-16.1046 24.2334 34.8683)" fill="black"/>
<rect x="24.7695" y="34.7135" width="0.558165" height="0.558165" transform="rotate(-16.1046 24.7695 34.7135)" fill="black"/>
<rect x="25.3057" y="34.5587" width="0.558165" height="0.558165" transform="rotate(-16.1046 25.3057 34.5587)" fill="black"/>
<rect x="25.8423" y="34.4038" width="0.558165" height="0.558165" transform="rotate(-16.1046 25.8423 34.4038)" fill="black"/>
<rect x="20.6128" y="6.17456" width="22.2973" height="12.8378" transform="rotate(27.2235 20.6128 6.17456)" fill="#FF1FFE"/>
<path fill-rule="evenodd" clip-rule="evenodd" d="M33.4788 29.2226L34.316 27.5952L35.9433 28.4324L41.8033 17.0416L40.1759 16.2045L41.0132 14.577L21.4862 4.5314L20.649 6.15884L19.0217 5.32166L13.1617 16.7124L14.7891 17.5496L13.9518 19.177L22.0879 23.3626L21.2511 24.9893L17.997 23.3152L17.1598 24.9427L26.9233 29.9655L27.7605 28.338L24.5058 26.6636L25.3426 25.037L33.4788 29.2226ZM22.2762 6.99573L38.5487 15.3671L37.7116 16.9943L39.3388 17.8317L34.316 27.5952L35.1531 25.9677L33.5259 25.1305L32.6888 26.7578L16.4163 18.3864L17.2534 16.7592L15.6262 15.9221L19.8119 7.78609L21.4391 8.62297L22.2762 6.99573Z" fill="black"/>
<rect x="5.11279" y="22.3429" width="2.19048" height="44.9048" fill="#7A7A7A"/>
<rect x="7.30322" y="22.3429" width="4.16191" height="44.9048" fill="#545454"/>
<rect x="11.4653" y="22.3429" width="8.76191" height="44.9048" fill="white"/>
<rect x="20.2271" y="22.1238" width="7.66667" height="44.9048" fill="#DDDDDE"/>
<rect x="27.8936" y="22.1238" width="10.2952" height="44.9048" fill="#AAAAAA"/>
<rect x="2.92236" y="20.3715" width="2.19048" height="46.8762" fill="black"/>
<rect x="38.189" y="20.3715" width="2.19048" height="46.8762" fill="black"/>
<rect x="10.5889" y="26.5048" width="3.50476" height="36.8" fill="#AAAAAA"/>
<rect x="8.83643" y="26.5048" width="1.75238" height="36.8" fill="#545454"/>
<rect x="10.8081" y="24.7524" width="1.75238" height="1.75238" fill="#464646"/>
<rect x="10.5889" y="63.3048" width="1.75238" height="1.75238" fill="#454545"/>
<rect x="18.2554" y="26.5048" width="3.50476" height="36.8" fill="#AAAAAA"/>
<rect x="16.5034" y="26.5048" width="1.75238" height="36.8" fill="#545454"/>
<rect x="18.4746" y="24.7524" width="1.75238" height="1.75238" fill="#464646"/>
<rect x="18.2554" y="63.3048" width="1.75238" height="1.75238" fill="#454545"/>
<rect x="25.9224" y="26.5048" width="3.50476" height="36.8" fill="#787878"/>
<rect x="24.1699" y="26.5048" width="1.75238" height="36.8" fill="#545454"/>
<rect x="26.1411" y="24.7524" width="1.75238" height="1.75238" fill="#464646"/>
<rect x="25.9224" y="63.3048" width="1.75238" height="1.75238" fill="#454545"/>
<rect x="32.9316" y="25.8477" width="3.50476" height="36.8" fill="#545454"/>
<rect x="31.1792" y="25.8477" width="1.75238" height="36.8" fill="#545454"/>
<rect x="33.1509" y="24.0953" width="1.75238" height="1.75238" fill="#464646"/>
<rect x="32.9316" y="62.6476" width="1.75238" height="1.75238" fill="#454545"/>
<rect x="5.11279" y="67.2477" width="33.0762" height="1.75238" fill="black"/>
<rect x="5.11279" y="20.3715" width="2.62857" height="1.97143" fill="#454545"/>
<rect x="35.5605" y="20.3715" width="2.62857" height="1.97143" fill="#D9D9D9"/>
<rect x="7.74121" y="20.3715" width="8.76191" height="1.97143" fill="#DDDDDE"/>
<rect x="16.5034" y="20.3715" width="8.76191" height="1.97143" fill="#AAAAAA"/>
<rect x="25.2651" y="20.3715" width="10.2952" height="1.97143" fill="#787878"/>
</svg>
